{"title":"Six.Nations.Rugby.Union-England.v.France-2013.02.23.720p.x264","uid":8183114,"size":2567071630,"categoryP":"video","categoryS":"hd___tv_shows","magnet":"?xt=urn:btih:bfa9aa36ad82acfffe1b9030c2ace1487bab663e&amp;dn=Six.Nations.Rugby.Union-England.v.France-2013.02.23.720p.x264&amp;tr=udp%3A%2F%2Ftracker.openbittorrent.com%3A80&amp;tr=udp%3A%2F%2Fopen.demonii.com%3A1337&amp;tr=udp%3A%2F%2Ftracker.coppersurfer.tk%3A6969&amp;tr=udp%3A%2F%2Fexodus.desync.com%3A6969","seeders":1,"leechers":0,"uploader":"rugbybill","files":4,"time":1361667633,"description":"SPORT: Six Nations Rugby Union - England v France\nOn: BBC 1 HD \nDate: Saturday 23rd February 2013 \nKO Time: 17:00\n\nLive coverage from Twickenham as England renew their cross-Channel rivalry with France. England hosts have won five of their last six encounters against the French in the Six Nations, including a 24-22 victory in Paris last year which helped ensure Stuart Lancaster was given the head coach role on a permanent basis. Lancaster's young side have since impressed and frustrated in equal measure, but they began this tournament as joint favourites with France. The visitors bounced back from a poor Six Nations campaign last year to win their three autumn internationals, beating Australia when marshalled by Frederic Michalak. France's prodigal son is likely to need to be at his best again if his side are to earn only their second Six Nations win at Twickenham since 1997. Commentary by Eddie Butler and Brian Moore.\n\n\nGeneral\nComplete name: 2013.02.23.6N.England.v.France.hdtv.720p.x264.mp4\nFormat: MPEG-4\nFormat profile: Base Media\nCodec ID: isom\nFile size: 2.39 GiB\nDuration: 1h 47mn\nOverall bit rate mode: Variable\nOverall bit rate: 3 188 Kbps\n\nVideo\nID: 1\nFormat: AVC\nFormat/Info: Advanced Video Codec\nFormat profile: &lt;a class=&quot;__cf_email__&quot; href=&quot;/cdn-cgi/l/email-protection&quot; data-cfemail=&quot;9ed6f7f9f6ded2aab0af&quot;&gt;[email&amp;#160;protected]&lt;/a&gt;&lt;script cf-hash='f9e31' type=&quot;text/javascript&quot;&gt;\n/* &lt;![CDATA[ */!function(){try{var t=&quot;currentScript&quot;in document?document.currentScript:function(){for(var t=document.getElementsByTagName(&quot;script&quot;),e=t.length;e--;)if(t[e].getAttribute(&quot;cf-hash&quot;))return t[e]}();if(t&amp;&amp;t.previousSibling){var e,r,n,i,c=t.previousSibling,a=c.getAttribute(&quot;data-cfemail&quot;);if(a){for(e=&quot;&quot;,r=parseInt(a.substr(0,2),16),n=2;a.length-n;n+=2)i=parseInt(a.substr(n,2),16)^r,e+=String.fromCharCode(i);e=document.createTextNode(e),c.parentNode.replaceChild(e,c)}}}catch(u){}}();/* ]]&gt; */&lt;/script&gt;\nFormat settings, CABAC: Yes\nFormat settings, ReFrames: 4 frames\nCodec ID: avc1\nCodec ID/Info: Advanced Video Coding\nDuration: 1h 47mn\nBit rate: 3 060 Kbps\nMaximum bit rate: 7 489 Kbps\nWidth: 1 280 pixels\nHeight: 720 pixels\nDisplay aspect ratio: 16:9\nFrame rate mode: Constant\nFrame rate: 25.000 fps\nColor space: YUV\nChroma subsampling: 4:2:0\nBit depth: 8 bits\nScan type: Progressive\nBits/(Pixel*Frame): 0.133\nStream size: 2.29 GiB (96%)\nWriting library: x264 core 129 r2245 bc13772\n\nAudio\nID: 2\nFormat: AAC\nFormat/Info: Advanced Audio Codec\nFormat profile: LC\nCodec ID: 40\nDuration: 1h 47mn\nBit rate mode: Variable\nBit rate: 124 Kbps\nMaximum bit rate: 128 Kbps\nChannel(s): 2 channels\nChannel positions: Front: L R\nSampling rate: 48.0 KHz\nCompression mode: Lossy\nDelay relative to video: 80ms\nStream size: 95.0 MiB (4%)\nLanguage: English","torrent":{"xt":"urn:btih:bfa9aa36ad82acfffe1b9030c2ace1487bab663e","amp;dn":"Six.Nations.Rugby.Union-England.v.France-2013.02.23.720p.x264","amp;tr":["udp%3A%2F%2Ftracker.openbittorrent.com%3A80","udp%3A%2F%2Fopen.demonii.com%3A1337","udp%3A%2F%2Ftracker.coppersurfer.tk%3A6969","udp%3A%2F%2Fexodus.desync.com%3A6969"],"infoHash":"bfa9aa36ad82acfffe1b9030c2ace1487bab663e","infoHashBuffer":{"type":"Buffer","data":[191,169,170,54,173,130,172,255,254,27,144,48,194,172,225,72,123,171,102,62]},"announce":[],"urlList":[]}}